<svg xmlns="http://www.w3.org/2000/svg" version="1.1" viewBox="0 0 451 477" width="451" height="477"><g stroke-width="2" fill="none" stroke-linecap="butt"><path d="M 128.59 441.01 Q 128.74 437.04 128.73 434.00 Q 128.43 354.97 128.70 182.27 Q 128.72 173.53 129.72 169.82 C 132.62 159.18 142.13 150.24 152.10 147.06 Q 156.17 145.76 171.53 145.79 Q 271.42 145.98 402.07 145.69 A 2.67 2.63 18.9 0 0 404.15 144.69 Q 414.49 131.63 424.68 116.89 C 428.79 110.94 431.72 107.16 433.41 101.44 C 436.10 92.33 436.70 84.29 433.54 75.47 Q 424.88 51.20 402.47 39.25 Q 389.28 32.20 371.77 32.22 Q 150.91 32.36 106.01 32.25 Q 91.07 32.22 79.76 33.01 Q 70.04 33.69 63.41 35.89 C 36.24 44.89 15.92 68.93 15.88 98.25 Q 15.86 107.50 15.85 368.16 C 15.84 374.26 16.44 381.15 16.98 386.73 Q 19.74 415.34 40.92 434.81 Q 50.60 443.71 60.79 447.20 C 79.35 453.55 101.59 451.62 120.18 445.44 Q 124.32 444.06 127.82 442.23 A 1.43 1.42 77.6 0 0 128.59 441.01" data-c-stroke="deb4b4"/><path d="M 394.19 156.19 Q 392.55 156.23 390.75 156.23 Q 247.75 156.29 163.05 156.39 Q 156.69 156.39 154.05 157.21 C 145.66 159.82 140.16 167.11 139.39 175.87 Q 139.15 178.61 139.16 189.76 Q 139.29 285.51 139.21 436.81 A 0.48 0.48 0.0 0 0 139.87 437.26 Q 144.20 435.58 148.31 433.05 C 164.10 423.33 178.37 410.67 191.80 398.90 A 2.46 2.44 69.4 0 0 192.63 397.06 Q 192.95 312.08 192.75 240.95 Q 192.72 231.16 192.96 229.58 C 194.57 219.08 202.36 210.73 211.96 207.22 Q 216.08 205.71 229.56 205.78 Q 259.49 205.94 350.28 205.88 C 352.80 205.88 354.92 206.54 356.72 204.22 Q 373.77 182.25 394.37 156.56 A 0.23 0.23 0.0 0 0 394.19 156.19" data-c-stroke="81a1a1"/><path  d="M 346.26 213.02 Q 302.86 213.10 230.28 212.96 Q 222.35 212.95 218.77 213.73 C 210.26 215.59 203.22 222.32 201.50 231.13 Q 201.09 233.25 201.08 242.91 Q 201.07 249.73 201.07 311.89 A 0.49 0.49 0.0 0 0 201.56 312.38 L 227.62 312.38 A 0.71 0.71 0.0 0 0 228.33 311.68 Q 228.48 302.66 233.46 294.77 C 244.91 276.64 266.09 274.57 282.53 287.05 A 1.63 1.60 10.8 0 1 283.10 287.87 Q 283.12 287.96 283.14 288.07 A 0.75 0.75 0.0 0 0 283.90 288.66 Q 285.27 288.62 285.87 287.85 Q 314.05 251.71 346.61 213.78 A 0.46 0.46 0.0 0 0 346.26 213.02" data-c-stroke="81a1a1"/></g><path fill="#fd6a6a" d="M 128.59 441.01 A 1.43 1.42 77.6 0 1 127.82 442.23 Q 124.32 444.06 120.18 445.44 C 101.59 451.62 79.35 453.55 60.79 447.20 Q 50.60 443.71 40.92 434.81 Q 19.74 415.34 16.98 386.73 C 16.44 381.15 15.84 374.26 15.85 368.16 Q 15.86 107.50 15.88 98.25 C 15.92 68.93 36.24 44.89 63.41 35.89 Q 70.04 33.69 79.76 33.01 Q 91.07 32.22 106.01 32.25 Q 150.91 32.36 371.77 32.22 Q 389.28 32.20 402.47 39.25 Q 424.88 51.20 433.54 75.47 C 436.70 84.29 436.10 92.33 433.41 101.44 C 431.72 107.16 428.79 110.94 424.68 116.89 Q 414.49 131.63 404.15 144.69 A 2.67 2.63 18.9 0 1 402.07 145.69 Q 271.42 145.98 171.53 145.79 Q 156.17 145.76 152.10 147.06 C 142.13 150.24 132.62 159.18 129.72 169.82 Q 128.72 173.53 128.70 182.27 Q 128.43 354.97 128.73 434.00 Q 128.74 437.04 128.59 441.01 Z" data-c-fill="fd6a6a"/><path fill="#444444" d="M 394.19 156.19 A 0.23 0.23 0.0 0 1 394.37 156.56 Q 373.77 182.25 356.72 204.22 C 354.92 206.54 352.80 205.88 350.28 205.88 Q 259.49 205.94 229.56 205.78 Q 216.08 205.71 211.96 207.22 C 202.36 210.73 194.57 219.08 192.96 229.58 Q 192.72 231.16 192.75 240.95 Q 192.95 312.08 192.63 397.06 A 2.46 2.44 69.4 0 1 191.80 398.90 C 178.37 410.67 164.10 423.33 148.31 433.05 Q 144.20 435.58 139.87 437.26 A 0.48 0.48 0.0 0 1 139.21 436.81 Q 139.29 285.51 139.16 189.76 Q 139.15 178.61 139.39 175.87 C 140.16 167.11 145.66 159.82 154.05 157.21 Q 156.69 156.39 163.05 156.39 Q 247.75 156.29 390.75 156.23 Q 392.55 156.23 394.19 156.19 Z" data-c-fill="444444"/><path fill="#444444" d="M 346.26 213.02 A 0.46 0.46 0.0 0 1 346.61 213.78 Q 314.05 251.71 285.87 287.85 Q 285.27 288.62 283.90 288.66 A 0.75 0.75 0.0 0 1 283.14 288.07 Q 283.12 287.96 283.10 287.87 A 1.63 1.60 10.8 0 0 282.53 287.05 C 266.09 274.57 244.91 276.64 233.46 294.77 Q 228.48 302.66 228.33 311.68 A 0.71 0.71 0.0 0 1 227.62 312.38 L 201.56 312.38 A 0.49 0.49 0.0 0 1 201.07 311.89 Q 201.07 249.73 201.08 242.91 Q 201.09 233.25 201.50 231.13 C 203.22 222.32 210.26 215.59 218.77 213.73 Q 222.35 212.95 230.28 212.96 Q 302.86 213.10 346.26 213.02 Z" data-c-fill="444444"/></svg>